<mxfile host="app.diagrams.net" modified="2023-09-15T00:43:17.276Z" agent="Mozilla/5.0 (X11; Ubuntu; Linux x86_64; rv:109.0) Gecko/20100101 Firefox/113.0" etag="l761URw7SX2FO92D_2zx" version="21.7.4" type="github">
  <diagram id="R2lEEEUBdFMjLlhIrx00" name="Page-1">
    <mxGraphModel dx="1367" dy="795" grid="1" gridSize="10" guides="1" tooltips="1" connect="1" arrows="1" fold="1" page="1" pageScale="1" pageWidth="850" pageHeight="1100" math="0" shadow="0" extFonts="Permanent Marker^https://fonts.googleapis.com/css?family=Permanent+Marker">
      <root>
        <mxCell id="0" />
        <mxCell id="1" parent="0" />
        <mxCell id="330GPT98bmkKfDyMkQcv-138" value="" style="rhombus;whiteSpace=wrap;html=1;" parent="1" vertex="1">
          <mxGeometry x="370" y="286.86" width="187.5" height="66.28" as="geometry" />
        </mxCell>
        <mxCell id="330GPT98bmkKfDyMkQcv-136" value="" style="rounded=1;whiteSpace=wrap;html=1;" parent="1" vertex="1">
          <mxGeometry x="660" y="630" width="180" height="180" as="geometry" />
        </mxCell>
        <mxCell id="330GPT98bmkKfDyMkQcv-129" value="" style="rounded=0;whiteSpace=wrap;html=1;" parent="1" vertex="1">
          <mxGeometry x="140" y="20" width="430" height="210" as="geometry" />
        </mxCell>
        <mxCell id="330GPT98bmkKfDyMkQcv-78" value="" style="rounded=0;whiteSpace=wrap;html=1;" parent="1" vertex="1">
          <mxGeometry x="10" y="470" width="520" height="330" as="geometry" />
        </mxCell>
        <mxCell id="330GPT98bmkKfDyMkQcv-146" value="" style="rounded=1;whiteSpace=wrap;html=1;direction=south;" parent="1" vertex="1">
          <mxGeometry x="50" y="490" width="190" height="300" as="geometry" />
        </mxCell>
        <mxCell id="330GPT98bmkKfDyMkQcv-26" value="Person" style="swimlane;childLayout=stackLayout;horizontal=1;startSize=50;horizontalStack=0;rounded=1;fontSize=14;fontStyle=0;strokeWidth=2;resizeParent=0;resizeLast=1;shadow=0;dashed=0;align=center;arcSize=4;whiteSpace=wrap;html=1;" parent="1" vertex="1">
          <mxGeometry x="170" y="40" width="160" height="180" as="geometry" />
        </mxCell>
        <mxCell id="330GPT98bmkKfDyMkQcv-27" value="&lt;div&gt;&lt;u&gt;email&lt;/u&gt;&lt;/div&gt;&lt;div&gt;name&lt;/div&gt;&lt;div&gt;&lt;span style=&quot;white-space: pre;&quot;&gt;&#x9;&lt;/span&gt;first_name&lt;/div&gt;&lt;div&gt;&lt;span style=&quot;white-space: pre;&quot;&gt;&#x9;&lt;/span&gt;last_name&lt;/div&gt;&lt;div&gt;{phone_number}&lt;/div&gt;&lt;div&gt;date_of_birth&lt;/div&gt;&lt;div&gt;age()&lt;/div&gt;&lt;div&gt;user_created&lt;br&gt;&lt;/div&gt;" style="align=left;strokeColor=none;fillColor=none;spacingLeft=4;fontSize=12;verticalAlign=top;resizable=0;rotatable=0;part=1;html=1;" parent="330GPT98bmkKfDyMkQcv-26" vertex="1">
          <mxGeometry y="50" width="160" height="130" as="geometry" />
        </mxCell>
        <mxCell id="330GPT98bmkKfDyMkQcv-29" value="Host" style="swimlane;childLayout=stackLayout;horizontal=1;startSize=50;horizontalStack=0;rounded=1;fontSize=14;fontStyle=0;strokeWidth=2;resizeParent=0;resizeLast=1;shadow=0;dashed=0;align=center;arcSize=4;whiteSpace=wrap;html=1;" parent="1" vertex="1">
          <mxGeometry x="60" y="260" width="160" height="120" as="geometry" />
        </mxCell>
        <mxCell id="330GPT98bmkKfDyMkQcv-30" value="&lt;div style=&quot;border-bottom: 1px dotted black&quot;&gt;email&lt;/div&gt;&lt;div&gt;ssn&lt;/div&gt;&lt;div&gt;insurance_policy_number&lt;br&gt;&lt;/div&gt;" style="align=left;strokeColor=none;fillColor=none;spacingLeft=4;fontSize=12;verticalAlign=top;resizable=0;rotatable=0;part=1;html=1;" parent="330GPT98bmkKfDyMkQcv-29" vertex="1">
          <mxGeometry y="50" width="160" height="70" as="geometry" />
        </mxCell>
        <mxCell id="330GPT98bmkKfDyMkQcv-39" value="Lodging" style="swimlane;childLayout=stackLayout;horizontal=1;startSize=50;horizontalStack=0;rounded=1;fontSize=14;fontStyle=0;strokeWidth=2;resizeParent=0;resizeLast=1;shadow=0;dashed=0;align=center;arcSize=4;whiteSpace=wrap;html=1;" parent="1" vertex="1">
          <mxGeometry x="60" y="500" width="160" height="270" as="geometry" />
        </mxCell>
        <mxCell id="330GPT98bmkKfDyMkQcv-40" value="&lt;div&gt;type&lt;/div&gt;&lt;div&gt;max_occupancy&lt;/div&gt;&lt;div&gt;num_bedrooms&lt;/div&gt;&lt;div&gt;num_beds&lt;/div&gt;&lt;div&gt;num_bath&lt;/div&gt;&lt;div&gt;price_per_night&lt;/div&gt;&lt;div&gt;address&lt;/div&gt;&lt;div&gt;&lt;span style=&quot;white-space: pre;&quot;&gt;&#x9;&lt;/span&gt;street_name&lt;/div&gt;&lt;div&gt;&lt;span style=&quot;white-space: pre;&quot;&gt;&#x9;&lt;/span&gt;street_num&lt;/div&gt;&lt;div&gt;&lt;span style=&quot;white-space: pre;&quot;&gt;&#x9;&lt;/span&gt;apt_num&lt;/div&gt;&lt;div&gt;&lt;span style=&quot;white-space: pre;&quot;&gt;&#x9;&lt;/span&gt;city&lt;/div&gt;&lt;div&gt;&lt;span style=&quot;white-space: pre;&quot;&gt;&#x9;&lt;/span&gt;state&lt;/div&gt;&lt;div&gt;&lt;span style=&quot;white-space: pre;&quot;&gt;&#x9;&lt;/span&gt;zip&lt;/div&gt;&lt;div&gt;&lt;u&gt;lodge_id&lt;/u&gt;&lt;br&gt;&lt;/div&gt;" style="align=left;strokeColor=none;fillColor=none;spacingLeft=4;fontSize=12;verticalAlign=top;resizable=0;rotatable=0;part=1;html=1;" parent="330GPT98bmkKfDyMkQcv-39" vertex="1">
          <mxGeometry y="50" width="160" height="220" as="geometry" />
        </mxCell>
        <mxCell id="330GPT98bmkKfDyMkQcv-43" value="&lt;div&gt;Offers&lt;/div&gt;" style="shape=rhombus;perimeter=rhombusPerimeter;whiteSpace=wrap;html=1;align=center;" parent="1" vertex="1">
          <mxGeometry x="80" y="410" width="120" height="60" as="geometry" />
        </mxCell>
        <mxCell id="330GPT98bmkKfDyMkQcv-46" value="Guest" style="swimlane;childLayout=stackLayout;horizontal=1;startSize=50;horizontalStack=0;rounded=1;fontSize=14;fontStyle=0;strokeWidth=2;resizeParent=0;resizeLast=1;shadow=0;dashed=0;align=center;arcSize=4;whiteSpace=wrap;html=1;" parent="1" vertex="1">
          <mxGeometry x="345" y="595" width="160" height="80" as="geometry" />
        </mxCell>
        <mxCell id="330GPT98bmkKfDyMkQcv-47" value="&lt;div style=&quot;border-bottom: 1px dotted black&quot;&gt;email&lt;/div&gt;" style="align=left;strokeColor=none;fillColor=none;spacingLeft=4;fontSize=12;verticalAlign=top;resizable=0;rotatable=0;part=1;html=1;" parent="330GPT98bmkKfDyMkQcv-46" vertex="1">
          <mxGeometry y="50" width="160" height="30" as="geometry" />
        </mxCell>
        <mxCell id="330GPT98bmkKfDyMkQcv-53" value="" style="shape=link;html=1;rounded=0;exitX=0.5;exitY=1;exitDx=0;exitDy=0;entryX=0.5;entryY=0;entryDx=0;entryDy=0;" parent="1" source="330GPT98bmkKfDyMkQcv-43" target="330GPT98bmkKfDyMkQcv-39" edge="1">
          <mxGeometry relative="1" as="geometry">
            <mxPoint x="260" y="440" as="sourcePoint" />
            <mxPoint x="330" y="410" as="targetPoint" />
          </mxGeometry>
        </mxCell>
        <mxCell id="330GPT98bmkKfDyMkQcv-54" value="N" style="resizable=0;html=1;whiteSpace=wrap;align=right;verticalAlign=bottom;" parent="330GPT98bmkKfDyMkQcv-53" connectable="0" vertex="1">
          <mxGeometry x="1" relative="1" as="geometry" />
        </mxCell>
        <mxCell id="330GPT98bmkKfDyMkQcv-60" value="" style="shape=link;html=1;rounded=0;exitX=0.463;exitY=0.971;exitDx=0;exitDy=0;exitPerimeter=0;" parent="1" source="330GPT98bmkKfDyMkQcv-30" target="330GPT98bmkKfDyMkQcv-43" edge="1">
          <mxGeometry width="100" relative="1" as="geometry">
            <mxPoint x="200" y="410" as="sourcePoint" />
            <mxPoint x="300" y="410" as="targetPoint" />
          </mxGeometry>
        </mxCell>
        <mxCell id="330GPT98bmkKfDyMkQcv-61" value="&lt;div&gt;1&lt;/div&gt;" style="edgeLabel;html=1;align=center;verticalAlign=middle;resizable=0;points=[];" parent="330GPT98bmkKfDyMkQcv-60" vertex="1" connectable="0">
          <mxGeometry x="-0.0057" y="-2" relative="1" as="geometry">
            <mxPoint as="offset" />
          </mxGeometry>
        </mxCell>
        <mxCell id="330GPT98bmkKfDyMkQcv-62" value="Booking" style="shape=rhombus;perimeter=rhombusPerimeter;whiteSpace=wrap;html=1;align=center;" parent="1" vertex="1">
          <mxGeometry x="250" y="470" width="120" height="60" as="geometry" />
        </mxCell>
        <mxCell id="330GPT98bmkKfDyMkQcv-63" value="&lt;div&gt;checkin&lt;/div&gt;&lt;div&gt;checkout&lt;/div&gt;&lt;div&gt;num_people&lt;/div&gt;&lt;div&gt;cost&lt;/div&gt;" style="whiteSpace=wrap;html=1;align=center;" parent="1" vertex="1">
          <mxGeometry x="425" y="475" width="100" height="50" as="geometry" />
        </mxCell>
        <mxCell id="330GPT98bmkKfDyMkQcv-64" value="" style="endArrow=none;dashed=1;html=1;rounded=0;exitX=1;exitY=0.5;exitDx=0;exitDy=0;entryX=0;entryY=0.5;entryDx=0;entryDy=0;" parent="1" source="330GPT98bmkKfDyMkQcv-62" target="330GPT98bmkKfDyMkQcv-63" edge="1">
          <mxGeometry width="50" height="50" relative="1" as="geometry">
            <mxPoint x="450" y="310" as="sourcePoint" />
            <mxPoint x="500" y="260" as="targetPoint" />
          </mxGeometry>
        </mxCell>
        <mxCell id="330GPT98bmkKfDyMkQcv-65" value="" style="endArrow=none;html=1;rounded=0;entryX=0.5;entryY=0;entryDx=0;entryDy=0;exitX=0.5;exitY=1;exitDx=0;exitDy=0;" parent="1" source="330GPT98bmkKfDyMkQcv-62" target="330GPT98bmkKfDyMkQcv-46" edge="1">
          <mxGeometry width="50" height="50" relative="1" as="geometry">
            <mxPoint x="450" y="310" as="sourcePoint" />
            <mxPoint x="500" y="260" as="targetPoint" />
          </mxGeometry>
        </mxCell>
        <mxCell id="330GPT98bmkKfDyMkQcv-67" value="m" style="edgeLabel;html=1;align=center;verticalAlign=middle;resizable=0;points=[];" parent="330GPT98bmkKfDyMkQcv-65" vertex="1" connectable="0">
          <mxGeometry x="0.228" relative="1" as="geometry">
            <mxPoint as="offset" />
          </mxGeometry>
        </mxCell>
        <mxCell id="330GPT98bmkKfDyMkQcv-66" value="" style="endArrow=none;html=1;rounded=0;exitX=0;exitY=0.5;exitDx=0;exitDy=0;entryX=1.025;entryY=0.291;entryDx=0;entryDy=0;entryPerimeter=0;" parent="1" source="330GPT98bmkKfDyMkQcv-62" target="330GPT98bmkKfDyMkQcv-40" edge="1">
          <mxGeometry width="50" height="50" relative="1" as="geometry">
            <mxPoint x="440" y="400" as="sourcePoint" />
            <mxPoint x="490" y="350" as="targetPoint" />
          </mxGeometry>
        </mxCell>
        <mxCell id="330GPT98bmkKfDyMkQcv-68" value="m" style="edgeLabel;html=1;align=center;verticalAlign=middle;resizable=0;points=[];" parent="330GPT98bmkKfDyMkQcv-66" vertex="1" connectable="0">
          <mxGeometry x="0.0046" y="-1" relative="1" as="geometry">
            <mxPoint as="offset" />
          </mxGeometry>
        </mxCell>
        <mxCell id="330GPT98bmkKfDyMkQcv-81" value="Payment" style="swimlane;childLayout=stackLayout;horizontal=1;startSize=50;horizontalStack=0;rounded=1;fontSize=14;fontStyle=0;strokeWidth=2;resizeParent=0;resizeLast=1;shadow=0;dashed=0;align=center;arcSize=4;whiteSpace=wrap;html=1;" parent="1" vertex="1">
          <mxGeometry x="670" y="650" width="160" height="140" as="geometry" />
        </mxCell>
        <mxCell id="330GPT98bmkKfDyMkQcv-82" value="&lt;div&gt;pmt_info&lt;/div&gt;&lt;div&gt;&lt;span style=&quot;white-space: pre;&quot;&gt;&#x9;&lt;/span&gt;cc_num&lt;/div&gt;&lt;div&gt;&lt;span style=&quot;white-space: pre;&quot;&gt;&#x9;&lt;/span&gt;exp_date&lt;/div&gt;&lt;div&gt;&lt;span style=&quot;white-space: pre;&quot;&gt;&#x9;&lt;/span&gt;trans_amt&lt;/div&gt;&lt;div&gt;&lt;span style=&quot;white-space: pre;&quot;&gt;&#x9;&lt;/span&gt;time_stamp&lt;br&gt;&lt;/div&gt;" style="align=left;strokeColor=none;fillColor=none;spacingLeft=4;fontSize=12;verticalAlign=top;resizable=0;rotatable=0;part=1;html=1;" parent="330GPT98bmkKfDyMkQcv-81" vertex="1">
          <mxGeometry y="50" width="160" height="90" as="geometry" />
        </mxCell>
        <mxCell id="330GPT98bmkKfDyMkQcv-83" style="edgeStyle=orthogonalEdgeStyle;rounded=0;orthogonalLoop=1;jettySize=auto;html=1;exitX=0.5;exitY=1;exitDx=0;exitDy=0;" parent="1" source="330GPT98bmkKfDyMkQcv-82" edge="1">
          <mxGeometry relative="1" as="geometry">
            <mxPoint x="750" y="790" as="targetPoint" />
          </mxGeometry>
        </mxCell>
        <mxCell id="330GPT98bmkKfDyMkQcv-84" value="&lt;div&gt;Cancelation&lt;/div&gt;" style="swimlane;childLayout=stackLayout;horizontal=1;startSize=50;horizontalStack=0;rounded=1;fontSize=14;fontStyle=0;strokeWidth=2;resizeParent=0;resizeLast=1;shadow=0;dashed=0;align=center;arcSize=4;whiteSpace=wrap;html=1;" parent="1" vertex="1">
          <mxGeometry x="670" y="440" width="160" height="120" as="geometry" />
        </mxCell>
        <mxCell id="330GPT98bmkKfDyMkQcv-85" value="&lt;div&gt;&lt;u&gt;date&lt;/u&gt;&lt;/div&gt;&lt;div&gt;&lt;u&gt;reason&lt;/u&gt;&lt;/div&gt;&lt;div&gt;&lt;u&gt;refund&lt;br&gt;&lt;/u&gt;&lt;/div&gt;" style="align=left;strokeColor=none;fillColor=none;spacingLeft=4;fontSize=12;verticalAlign=top;resizable=0;rotatable=0;part=1;html=1;" parent="330GPT98bmkKfDyMkQcv-84" vertex="1">
          <mxGeometry y="50" width="160" height="70" as="geometry" />
        </mxCell>
        <mxCell id="330GPT98bmkKfDyMkQcv-90" value="Referral" style="shape=rhombus;perimeter=rhombusPerimeter;whiteSpace=wrap;html=1;align=center;" parent="1" vertex="1">
          <mxGeometry x="450" y="90" width="120" height="60" as="geometry" />
        </mxCell>
        <mxCell id="330GPT98bmkKfDyMkQcv-91" value="" style="endArrow=none;html=1;rounded=0;exitX=0.988;exitY=0.892;exitDx=0;exitDy=0;exitPerimeter=0;entryX=0.5;entryY=1;entryDx=0;entryDy=0;" parent="1" source="330GPT98bmkKfDyMkQcv-27" target="330GPT98bmkKfDyMkQcv-90" edge="1">
          <mxGeometry relative="1" as="geometry">
            <mxPoint x="430" y="400" as="sourcePoint" />
            <mxPoint x="590" y="400" as="targetPoint" />
          </mxGeometry>
        </mxCell>
        <mxCell id="330GPT98bmkKfDyMkQcv-94" value="existing_user" style="edgeLabel;html=1;align=center;verticalAlign=middle;resizable=0;points=[];" parent="330GPT98bmkKfDyMkQcv-91" vertex="1" connectable="0">
          <mxGeometry x="0.2522" relative="1" as="geometry">
            <mxPoint as="offset" />
          </mxGeometry>
        </mxCell>
        <mxCell id="330GPT98bmkKfDyMkQcv-95" value="&lt;div&gt;1&lt;/div&gt;" style="edgeLabel;html=1;align=center;verticalAlign=middle;resizable=0;points=[];" parent="330GPT98bmkKfDyMkQcv-91" vertex="1" connectable="0">
          <mxGeometry x="-0.4949" y="-3" relative="1" as="geometry">
            <mxPoint as="offset" />
          </mxGeometry>
        </mxCell>
        <mxCell id="330GPT98bmkKfDyMkQcv-92" value="" style="endArrow=none;html=1;rounded=0;exitX=0.988;exitY=0.067;exitDx=0;exitDy=0;exitPerimeter=0;entryX=0.5;entryY=0;entryDx=0;entryDy=0;" parent="1" source="330GPT98bmkKfDyMkQcv-26" target="330GPT98bmkKfDyMkQcv-90" edge="1">
          <mxGeometry relative="1" as="geometry">
            <mxPoint x="430" y="400" as="sourcePoint" />
            <mxPoint x="590" y="400" as="targetPoint" />
          </mxGeometry>
        </mxCell>
        <mxCell id="330GPT98bmkKfDyMkQcv-93" value="new_user" style="edgeLabel;html=1;align=center;verticalAlign=middle;resizable=0;points=[];" parent="330GPT98bmkKfDyMkQcv-92" vertex="1" connectable="0">
          <mxGeometry x="0.489" y="2" relative="1" as="geometry">
            <mxPoint as="offset" />
          </mxGeometry>
        </mxCell>
        <mxCell id="330GPT98bmkKfDyMkQcv-96" value="Discounting" style="shape=rhombus;perimeter=rhombusPerimeter;whiteSpace=wrap;html=1;align=center;" parent="1" vertex="1">
          <mxGeometry x="80" y="810" width="120" height="60" as="geometry" />
        </mxCell>
        <mxCell id="330GPT98bmkKfDyMkQcv-99" value="Discount" style="swimlane;childLayout=stackLayout;horizontal=1;startSize=50;horizontalStack=0;rounded=1;fontSize=14;fontStyle=0;strokeWidth=2;resizeParent=0;resizeLast=1;shadow=0;dashed=0;align=center;arcSize=4;whiteSpace=wrap;html=1;" parent="1" vertex="1">
          <mxGeometry x="240" y="820" width="160" height="120" as="geometry" />
        </mxCell>
        <mxCell id="330GPT98bmkKfDyMkQcv-100" value="&lt;div&gt;&lt;u&gt;min_num_night_stay&lt;/u&gt;&lt;/div&gt;&lt;div&gt;&lt;u&gt;max_num_night_stay&lt;/u&gt;&lt;/div&gt;&lt;div&gt;&lt;u&gt;discount&lt;br&gt;&lt;/u&gt;&lt;/div&gt;" style="align=left;strokeColor=none;fillColor=none;spacingLeft=4;fontSize=12;verticalAlign=top;resizable=0;rotatable=0;part=1;html=1;" parent="330GPT98bmkKfDyMkQcv-99" vertex="1">
          <mxGeometry y="50" width="160" height="70" as="geometry" />
        </mxCell>
        <mxCell id="330GPT98bmkKfDyMkQcv-103" value="Discounting" style="shape=rhombus;double=1;perimeter=rhombusPerimeter;whiteSpace=wrap;html=1;align=center;" parent="1" vertex="1">
          <mxGeometry x="80" y="810" width="120" height="60" as="geometry" />
        </mxCell>
        <mxCell id="330GPT98bmkKfDyMkQcv-108" value="Cancels" style="shape=rhombus;double=1;perimeter=rhombusPerimeter;whiteSpace=wrap;html=1;align=center;" parent="1" vertex="1">
          <mxGeometry x="550" y="490" width="90" height="60" as="geometry" />
        </mxCell>
        <mxCell id="330GPT98bmkKfDyMkQcv-109" value="" style="endArrow=none;html=1;rounded=0;dashed=1;dashPattern=1 2;exitX=1;exitY=0.25;exitDx=0;exitDy=0;entryX=0;entryY=0.5;entryDx=0;entryDy=0;" parent="1" source="330GPT98bmkKfDyMkQcv-78" target="330GPT98bmkKfDyMkQcv-108" edge="1">
          <mxGeometry relative="1" as="geometry">
            <mxPoint x="390" y="550" as="sourcePoint" />
            <mxPoint x="550" y="550" as="targetPoint" />
          </mxGeometry>
        </mxCell>
        <mxCell id="330GPT98bmkKfDyMkQcv-110" value="m" style="resizable=0;html=1;whiteSpace=wrap;align=right;verticalAlign=bottom;" parent="330GPT98bmkKfDyMkQcv-109" connectable="0" vertex="1">
          <mxGeometry x="1" relative="1" as="geometry" />
        </mxCell>
        <mxCell id="330GPT98bmkKfDyMkQcv-111" value="Pays" style="shape=rhombus;double=1;perimeter=rhombusPerimeter;whiteSpace=wrap;html=1;align=center;" parent="1" vertex="1">
          <mxGeometry x="570" y="670" width="70" height="60" as="geometry" />
        </mxCell>
        <mxCell id="330GPT98bmkKfDyMkQcv-112" value="" style="endArrow=none;html=1;rounded=0;dashed=1;dashPattern=1 2;entryX=0;entryY=0.5;entryDx=0;entryDy=0;exitX=1.006;exitY=0.645;exitDx=0;exitDy=0;exitPerimeter=0;" parent="1" source="330GPT98bmkKfDyMkQcv-78" target="330GPT98bmkKfDyMkQcv-111" edge="1">
          <mxGeometry relative="1" as="geometry">
            <mxPoint x="390" y="550" as="sourcePoint" />
            <mxPoint x="550" y="550" as="targetPoint" />
          </mxGeometry>
        </mxCell>
        <mxCell id="330GPT98bmkKfDyMkQcv-113" value="1" style="resizable=0;html=1;whiteSpace=wrap;align=right;verticalAlign=bottom;" parent="330GPT98bmkKfDyMkQcv-112" connectable="0" vertex="1">
          <mxGeometry x="1" relative="1" as="geometry" />
        </mxCell>
        <mxCell id="330GPT98bmkKfDyMkQcv-114" value="" style="shape=link;html=1;rounded=0;entryX=0;entryY=0;entryDx=0;entryDy=0;exitX=1;exitY=0.5;exitDx=0;exitDy=0;" parent="1" source="330GPT98bmkKfDyMkQcv-111" target="330GPT98bmkKfDyMkQcv-82" edge="1">
          <mxGeometry relative="1" as="geometry">
            <mxPoint x="390" y="550" as="sourcePoint" />
            <mxPoint x="550" y="550" as="targetPoint" />
          </mxGeometry>
        </mxCell>
        <mxCell id="330GPT98bmkKfDyMkQcv-115" value="1" style="resizable=0;html=1;whiteSpace=wrap;align=right;verticalAlign=bottom;" parent="330GPT98bmkKfDyMkQcv-114" connectable="0" vertex="1">
          <mxGeometry x="1" relative="1" as="geometry" />
        </mxCell>
        <mxCell id="330GPT98bmkKfDyMkQcv-116" value="" style="shape=link;html=1;rounded=0;entryX=0;entryY=0;entryDx=0;entryDy=0;exitX=1;exitY=0.5;exitDx=0;exitDy=0;" parent="1" source="330GPT98bmkKfDyMkQcv-108" target="330GPT98bmkKfDyMkQcv-85" edge="1">
          <mxGeometry relative="1" as="geometry">
            <mxPoint x="390" y="550" as="sourcePoint" />
            <mxPoint x="550" y="550" as="targetPoint" />
          </mxGeometry>
        </mxCell>
        <mxCell id="330GPT98bmkKfDyMkQcv-117" value="n" style="resizable=0;html=1;whiteSpace=wrap;align=right;verticalAlign=bottom;" parent="330GPT98bmkKfDyMkQcv-116" connectable="0" vertex="1">
          <mxGeometry x="1" relative="1" as="geometry" />
        </mxCell>
        <mxCell id="330GPT98bmkKfDyMkQcv-120" value="Discounting" style="shape=rhombus;perimeter=rhombusPerimeter;whiteSpace=wrap;html=1;align=center;" parent="1" vertex="1">
          <mxGeometry x="80" y="810" width="120" height="60" as="geometry" />
        </mxCell>
        <mxCell id="330GPT98bmkKfDyMkQcv-121" value="" style="endArrow=none;html=1;rounded=0;exitX=1;exitY=0.5;exitDx=0;exitDy=0;entryX=0;entryY=0;entryDx=0;entryDy=0;" parent="1" source="330GPT98bmkKfDyMkQcv-120" target="330GPT98bmkKfDyMkQcv-100" edge="1">
          <mxGeometry relative="1" as="geometry">
            <mxPoint x="180" y="640" as="sourcePoint" />
            <mxPoint x="340" y="640" as="targetPoint" />
          </mxGeometry>
        </mxCell>
        <mxCell id="330GPT98bmkKfDyMkQcv-122" value="N" style="resizable=0;html=1;whiteSpace=wrap;align=right;verticalAlign=bottom;" parent="330GPT98bmkKfDyMkQcv-121" connectable="0" vertex="1">
          <mxGeometry x="1" relative="1" as="geometry" />
        </mxCell>
        <mxCell id="330GPT98bmkKfDyMkQcv-123" value="" style="endArrow=none;html=1;rounded=0;exitX=0.5;exitY=1;exitDx=0;exitDy=0;" parent="1" source="330GPT98bmkKfDyMkQcv-40" target="330GPT98bmkKfDyMkQcv-120" edge="1">
          <mxGeometry relative="1" as="geometry">
            <mxPoint x="180" y="640" as="sourcePoint" />
            <mxPoint x="340" y="640" as="targetPoint" />
          </mxGeometry>
        </mxCell>
        <mxCell id="330GPT98bmkKfDyMkQcv-124" value="N" style="resizable=0;html=1;whiteSpace=wrap;align=right;verticalAlign=bottom;" parent="330GPT98bmkKfDyMkQcv-123" connectable="0" vertex="1">
          <mxGeometry x="1" relative="1" as="geometry" />
        </mxCell>
        <mxCell id="330GPT98bmkKfDyMkQcv-127" value="&lt;div&gt;Referral_Credit_Awarded&lt;/div&gt;" style="shape=rhombus;perimeter=rhombusPerimeter;whiteSpace=wrap;html=1;align=center;" parent="1" vertex="1">
          <mxGeometry x="380" y="290" width="165" height="60" as="geometry" />
        </mxCell>
        <mxCell id="330GPT98bmkKfDyMkQcv-133" value="&lt;div&gt;credit_amt&lt;/div&gt;" style="rounded=0;whiteSpace=wrap;html=1;" parent="1" vertex="1">
          <mxGeometry x="580" y="290" width="120" height="60" as="geometry" />
        </mxCell>
        <mxCell id="330GPT98bmkKfDyMkQcv-135" value="" style="endArrow=none;dashed=1;html=1;rounded=0;exitX=1;exitY=0.5;exitDx=0;exitDy=0;entryX=0;entryY=0.5;entryDx=0;entryDy=0;" parent="1" source="330GPT98bmkKfDyMkQcv-127" target="330GPT98bmkKfDyMkQcv-133" edge="1">
          <mxGeometry width="50" height="50" relative="1" as="geometry">
            <mxPoint x="520" y="190" as="sourcePoint" />
            <mxPoint x="570" y="140" as="targetPoint" />
          </mxGeometry>
        </mxCell>
        <mxCell id="330GPT98bmkKfDyMkQcv-137" value="" style="endArrow=none;dashed=1;html=1;rounded=0;exitX=0.8;exitY=-0.012;exitDx=0;exitDy=0;exitPerimeter=0;" parent="1" source="330GPT98bmkKfDyMkQcv-78" edge="1">
          <mxGeometry width="50" height="50" relative="1" as="geometry">
            <mxPoint x="400" y="400" as="sourcePoint" />
            <mxPoint x="460" y="350" as="targetPoint" />
          </mxGeometry>
        </mxCell>
        <mxCell id="330GPT98bmkKfDyMkQcv-141" value="" style="shape=link;html=1;rounded=0;exitX=0.537;exitY=1.019;exitDx=0;exitDy=0;exitPerimeter=0;entryX=0.5;entryY=0;entryDx=0;entryDy=0;" parent="1" source="330GPT98bmkKfDyMkQcv-129" target="330GPT98bmkKfDyMkQcv-127" edge="1">
          <mxGeometry relative="1" as="geometry">
            <mxPoint x="400" y="490" as="sourcePoint" />
            <mxPoint x="560" y="490" as="targetPoint" />
          </mxGeometry>
        </mxCell>
        <mxCell id="330GPT98bmkKfDyMkQcv-142" value="1" style="resizable=0;html=1;whiteSpace=wrap;align=right;verticalAlign=bottom;" parent="330GPT98bmkKfDyMkQcv-141" connectable="0" vertex="1">
          <mxGeometry x="1" relative="1" as="geometry" />
        </mxCell>
        <mxCell id="330GPT98bmkKfDyMkQcv-144" value="" style="endArrow=block;html=1;rounded=0;exitX=0.5;exitY=0;exitDx=0;exitDy=0;endFill=0;entryX=0.45;entryY=0.985;entryDx=0;entryDy=0;entryPerimeter=0;" parent="1" source="330GPT98bmkKfDyMkQcv-29" target="330GPT98bmkKfDyMkQcv-27" edge="1">
          <mxGeometry width="50" height="50" relative="1" as="geometry">
            <mxPoint x="370" y="550" as="sourcePoint" />
            <mxPoint x="220" y="230" as="targetPoint" />
          </mxGeometry>
        </mxCell>
        <mxCell id="330GPT98bmkKfDyMkQcv-145" value="" style="endArrow=block;html=1;rounded=0;entryX=0.856;entryY=0.992;entryDx=0;entryDy=0;entryPerimeter=0;endFill=0;" parent="1" source="330GPT98bmkKfDyMkQcv-46" target="330GPT98bmkKfDyMkQcv-27" edge="1">
          <mxGeometry width="50" height="50" relative="1" as="geometry">
            <mxPoint x="370" y="550" as="sourcePoint" />
            <mxPoint x="420" y="500" as="targetPoint" />
          </mxGeometry>
        </mxCell>
        <mxCell id="330GPT98bmkKfDyMkQcv-147" value="&lt;div&gt;Offers&lt;/div&gt;" style="shape=rhombus;double=1;perimeter=rhombusPerimeter;whiteSpace=wrap;html=1;align=center;" parent="1" vertex="1">
          <mxGeometry x="80" y="410" width="120" height="60" as="geometry" />
        </mxCell>
        <mxCell id="330GPT98bmkKfDyMkQcv-148" value="Reviews" style="swimlane;childLayout=stackLayout;horizontal=1;startSize=50;horizontalStack=0;rounded=1;fontSize=14;fontStyle=0;strokeWidth=2;resizeParent=0;resizeLast=1;shadow=0;dashed=0;align=center;arcSize=4;whiteSpace=wrap;html=1;" parent="1" vertex="1">
          <mxGeometry x="650" y="840" width="160" height="120" as="geometry" />
        </mxCell>
        <mxCell id="330GPT98bmkKfDyMkQcv-149" value="&lt;div&gt;time_stamp&lt;/div&gt;&lt;div&gt;stars&lt;/div&gt;&lt;div&gt;comments&lt;br&gt;&lt;/div&gt;" style="align=left;strokeColor=none;fillColor=none;spacingLeft=4;fontSize=12;verticalAlign=top;resizable=0;rotatable=0;part=1;html=1;" parent="330GPT98bmkKfDyMkQcv-148" vertex="1">
          <mxGeometry y="50" width="160" height="70" as="geometry" />
        </mxCell>
        <mxCell id="330GPT98bmkKfDyMkQcv-150" value="Reviewed" style="shape=rhombus;perimeter=rhombusPerimeter;whiteSpace=wrap;html=1;align=center;" parent="1" vertex="1">
          <mxGeometry x="480" y="840" width="120" height="60" as="geometry" />
        </mxCell>
        <mxCell id="330GPT98bmkKfDyMkQcv-151" value="" style="endArrow=none;html=1;rounded=0;exitX=0.5;exitY=1;exitDx=0;exitDy=0;entryX=0.5;entryY=0;entryDx=0;entryDy=0;" parent="1" source="330GPT98bmkKfDyMkQcv-46" target="330GPT98bmkKfDyMkQcv-150" edge="1">
          <mxGeometry relative="1" as="geometry">
            <mxPoint x="300" y="610" as="sourcePoint" />
            <mxPoint x="460" y="610" as="targetPoint" />
          </mxGeometry>
        </mxCell>
        <mxCell id="330GPT98bmkKfDyMkQcv-154" value="m" style="edgeLabel;html=1;align=center;verticalAlign=middle;resizable=0;points=[];" parent="330GPT98bmkKfDyMkQcv-151" vertex="1" connectable="0">
          <mxGeometry x="-0.2302" y="1" relative="1" as="geometry">
            <mxPoint as="offset" />
          </mxGeometry>
        </mxCell>
        <mxCell id="330GPT98bmkKfDyMkQcv-152" value="" style="endArrow=none;html=1;rounded=0;exitX=1;exitY=0.5;exitDx=0;exitDy=0;entryX=0;entryY=0.5;entryDx=0;entryDy=0;" parent="1" source="330GPT98bmkKfDyMkQcv-40" target="330GPT98bmkKfDyMkQcv-150" edge="1">
          <mxGeometry relative="1" as="geometry">
            <mxPoint x="300" y="610" as="sourcePoint" />
            <mxPoint x="460" y="610" as="targetPoint" />
          </mxGeometry>
        </mxCell>
        <mxCell id="330GPT98bmkKfDyMkQcv-153" value="n" style="edgeLabel;html=1;align=center;verticalAlign=middle;resizable=0;points=[];" parent="330GPT98bmkKfDyMkQcv-152" vertex="1" connectable="0">
          <mxGeometry x="-0.4131" relative="1" as="geometry">
            <mxPoint as="offset" />
          </mxGeometry>
        </mxCell>
        <mxCell id="330GPT98bmkKfDyMkQcv-155" value="" style="endArrow=none;html=1;rounded=0;entryX=0.013;entryY=0.408;entryDx=0;entryDy=0;entryPerimeter=0;exitX=1;exitY=0.5;exitDx=0;exitDy=0;" parent="1" source="330GPT98bmkKfDyMkQcv-150" target="330GPT98bmkKfDyMkQcv-148" edge="1">
          <mxGeometry relative="1" as="geometry">
            <mxPoint x="300" y="610" as="sourcePoint" />
            <mxPoint x="460" y="610" as="targetPoint" />
          </mxGeometry>
        </mxCell>
      </root>
    </mxGraphModel>
  </diagram>
</mxfile>
